<svg xmlns="http://www.w3.org/2000/svg" width="621.676" height="606.477" viewBox="0 0 621.676 606.477">
  <g id="Group_1423" data-name="Group 1423" transform="translate(-68.562 -82.478)">
    <g id="Group_1296" data-name="Group 1296" transform="translate(123.599 440.811)">
      <path id="Path_1217" data-name="Path 1217" d="M292.666,525H165.261a20.818,20.818,0,0,1-8.324-5.05c-8.259-8.346-10.766-14.2-10.78-14.175.022.279,24.155,7.125,21.12,1.727-2.892-5.006-23.39-4.874-29.056-12.067-5.668-6.953-12.522-19.688-12.471-19.7-.041.19,17.768,11.412,17.4,5.933-.359-5.074-20.723-14.018-25.2-22.768-4.462-8.276,17.662,6.669,19.986,3.9,2.215-2.148-21.257-17.348-25.858-24.932-4.806-7.2-5.588-21.187-2.257-18.129,3.289,3.029,8.673,7.9,8.672,4.66-.152-3.029-14.143-22.536-14.015-29.053-.11-6.117,14.946,11.249,16.075,8.928.936-1.845-17.234-19.8-18.925-30.3-1.865-10.181-.418-18.974.481-18.813.832.231,9.118,13.636,11.047,13.049,1.622-.31-2.663-62.969,26.948-76.352,24.593,15.919,47.166,56.918,47.277,56.894,1.778-.536,3.888-12.817,4.754-13.2.792-.407,5.18,4.9,7.949,11.863,2.517,6.815-2.666,26.621-.436,27.317,1.876.447,4.828-17.208,8.119-13.648,2.966,3.4,3.377,21.035,5.595,22.537,2.021,1.453,2.88-4.094,3.63-7.4.751-3.255,8.242,3.337,9.479,8.968.9,5.538-2.738,27.268.642,26.4,2.9-1.141,6.259-21.108,9.319-15.43,2.735,5.394-1.877,22.642,2.221,24.115,3.792,1.265,4.777-14.355,4.924-14.283-.024.027,5.4,7.64,8.1,12.8,2.5,5.042-5.875,21.552-2.428,24.518,3.134,2.706,6.594-17.379,6.82-17.249.024,0,3.329,2.511,7.029,9.24,3.733,6.669-1.941,15.149,1.545,21.577,3.549,6.356,10.137-3.777,10.143-3.746C295.093,482.27,296,508.092,292.666,525Z" transform="translate(-100.721 -291.858)" fill="#7aa9ff" fill-rule="evenodd"/>
    </g>
    <g id="Group_1297" data-name="Group 1297" transform="translate(76.371 474.744)">
      <path id="Path_1218" data-name="Path 1218" d="M312.272,474.266,193.411,520.138a20.829,20.829,0,0,1-9.584-1.715c-10.708-4.812-15.16-9.375-15.16-9.343.122.252,25.1-2.049,20.326-5.993-4.5-3.628-23.578,3.873-31.454-.8-7.792-4.444-18.771-13.857-18.73-13.891.031.192,20.686,4.251,18.372-.731-2.163-4.6-24.382-5.615-31.709-12.166-7.143-6.115,18.878-.137,20.049-3.556,1.292-2.8-26.078-8.533-33.1-13.951-7.077-4.985-12.842-17.754-8.632-16.1,4.159,1.641,10.936,4.251,9.767,1.225-1.232-2.771-21.309-15.933-23.535-22.058-2.305-5.668,17.994,5.114,18.211,2.541.209-2.057-23.2-12.266-28.563-21.454-5.406-8.826-7.222-17.55-6.325-17.723.859-.084,13.416,9.438,15,8.2,1.4-.874-25.156-57.789-2.35-80.935,28.676,6,64.5,36.119,64.592,36.057,1.465-1.142-.987-13.357-.318-14.027.592-.666,6.6,2.707,11.687,8.2,4.8,5.453,7.1,25.8,9.43,25.642,1.912-.257-1.693-17.792,2.659-15.654,3.993,2.107,10.724,18.408,13.334,19.01,2.41.628,1.213-4.855.726-8.208-.472-3.306,8.889.147,12.072,4.954,2.831,4.842,7.261,26.424,10.1,24.4,2.3-2.11-1.761-21.945,3.139-17.751,4.492,4.047,6.4,21.8,10.753,21.7,4-.187-.712-15.113-.548-15.1-.012.033,7.792,5.182,12.165,9.021,4.143,3.806,2.276,22.221,6.562,23.747,3.9,1.4-.1-18.588.152-18.548.022-.007,4.008,1.145,9.883,6.091,5.884,4.876,3.644,14.831,9.211,19.573,5.6,4.652,8.1-7.174,8.115-7.147C299.149,433.526,309.291,457.29,312.272,474.266Z" transform="translate(-73.125 -311.686)" fill="#6fa0fd" fill-rule="evenodd"/>
    </g>
    <g id="Group_1298" data-name="Group 1298" transform="translate(409.906 408.467)">
      <path id="Path_1219" data-name="Path 1219" d="M269.69,537.93h144.8a23.653,23.653,0,0,0,9.461-5.738c9.385-9.486,12.236-16.144,12.252-16.111-.027.318-27.453,8.1-24.006,1.963,3.288-5.689,26.585-5.54,33.023-13.715,6.443-7.9,14.232-22.375,14.175-22.392.045.216-20.195,12.969-19.777,6.743.407-5.767,23.552-15.931,28.64-25.876,5.073-9.406-20.071,7.58-22.714,4.433-2.516-2.442,24.158-19.717,29.388-28.336,5.463-8.182,6.351-24.079,2.565-20.6-3.739,3.443-9.858,8.985-9.856,5.3.173-3.443,16.073-25.613,15.928-33.02.125-6.952-16.986,12.784-18.267,10.145-1.065-2.095,19.584-22.5,21.505-34.435,2.122-11.569.476-21.564-.546-21.381-.945.262-10.361,15.5-12.555,14.829-1.845-.351,3.026-71.564-30.627-86.775-27.949,18.093-53.6,64.689-53.729,64.66-2.021-.608-4.421-14.566-5.4-15-.9-.464-5.887,5.569-9.036,13.482-2.861,7.746,3.031,30.254.5,31.045-2.132.508-5.487-19.556-9.226-15.509-3.371,3.868-3.839,23.9-6.36,25.613-2.3,1.65-3.272-4.653-4.126-8.406-.852-3.7-9.365,3.793-10.773,10.191-1.022,6.293,3.113,30.99-.727,30.008-3.3-1.3-7.113-23.989-10.592-17.537-3.108,6.13,2.134,25.733-2.524,27.406-4.311,1.439-5.429-16.313-5.6-16.231.027.029-6.142,8.682-9.206,14.543-2.836,5.728,6.678,24.49,2.761,27.863-3.561,3.075-7.5-19.751-7.753-19.6-.026,0-3.78,2.853-7.985,10.5-4.244,7.576,2.206,17.215-1.758,24.521-4.034,7.226-11.52-4.294-11.53-4.258C266.933,489.364,265.9,518.711,269.69,537.93Z" transform="translate(-268.016 -272.959)" fill="#7aa9ff" fill-rule="evenodd"/>
    </g>
    <g id="Group_1324" data-name="Group 1324" transform="translate(511.419 357.13)">
      <g id="Group_1299" data-name="Group 1299" transform="translate(33.085 20.652)">
        <path id="Path_1220" data-name="Path 1220" d="M414.191,256.411c-13.38,15.2-23.929,33.427-33.129,51.339a326.375,326.375,0,0,0-32.662,102.7l-1.737-.623A333.669,333.669,0,0,1,378.5,308.794c9.332-18.671,20.326-37.682,34.2-53.435C413.466,254.486,414.972,255.527,414.191,256.411Z" transform="translate(-346.663 -255.03)" fill="#3f79da" fill-rule="evenodd"/>
      </g>
      <g id="Group_1300" data-name="Group 1300" transform="translate(3.171 147.317)">
        <path id="Path_1221" data-name="Path 1221" d="M359.558,357.29s-3.127-17-30.374-28.248C329.184,329.042,336.967,350.061,359.558,357.29Z" transform="translate(-329.184 -329.042)" fill="#3f79da" fill-rule="evenodd"/>
      </g>
      <g id="Group_1301" data-name="Group 1301" transform="translate(0 130.902)">
        <path id="Path_1222" data-name="Path 1222" d="M362.95,351.135s-3.982-18.724-35.619-31.685C327.331,319.45,336.768,342.694,362.95,351.135Z" transform="translate(-327.331 -319.45)" fill="#3f79da" fill-rule="evenodd"/>
      </g>
      <g id="Group_1302" data-name="Group 1302" transform="translate(6.983 115.899)">
        <path id="Path_1223" data-name="Path 1223" d="M362.124,347.142s-1.26-19.1-30.713-36.458C331.411,310.684,337.421,335.041,362.124,347.142Z" transform="translate(-331.411 -310.684)" fill="#3f79da" fill-rule="evenodd"/>
      </g>
      <g id="Group_1303" data-name="Group 1303" transform="translate(15.002 101.63)">
        <path id="Path_1224" data-name="Path 1224" d="M362.834,341.811s.744-19.127-26.737-39.465C336.1,302.346,339.53,327.2,362.834,341.811Z" transform="translate(-336.097 -302.346)" fill="#3f79da" fill-rule="evenodd"/>
      </g>
      <g id="Group_1304" data-name="Group 1304" transform="translate(13.282 79.486)">
        <path id="Path_1225" data-name="Path 1225" d="M367.6,335.7s.361-22.068-32.511-46.292C335.092,289.407,339.8,318.2,367.6,335.7Z" transform="translate(-335.092 -289.407)" fill="#3f79da" fill-rule="evenodd"/>
      </g>
      <g id="Group_1305" data-name="Group 1305" transform="translate(17.607 62.398)">
        <path id="Path_1226" data-name="Path 1226" d="M371.311,327.47s.4-22.922-33.692-48.048C337.619,279.422,342.471,309.317,371.311,327.47Z" transform="translate(-337.619 -279.422)" fill="#3f79da" fill-rule="evenodd"/>
      </g>
      <g id="Group_1306" data-name="Group 1306" transform="translate(29.354 44.816)">
        <path id="Path_1227" data-name="Path 1227" d="M370.1,321.944s4.041-22.566-25.618-52.795C344.483,269.149,344.514,299.436,370.1,321.944Z" transform="translate(-344.483 -269.149)" fill="#3f79da" fill-rule="evenodd"/>
      </g>
      <g id="Group_1307" data-name="Group 1307" transform="translate(45.176 30.857)">
        <path id="Path_1228" data-name="Path 1228" d="M370.592,311.24s6.3-19.693-16.619-50.248C353.973,260.992,350.4,288.075,370.592,311.24Z" transform="translate(-353.728 -260.992)" fill="#3f79da" fill-rule="evenodd"/>
      </g>
      <g id="Group_1308" data-name="Group 1308" transform="translate(54.092 18.846)">
        <path id="Path_1229" data-name="Path 1229" d="M375.862,300.558s4.919-17.773-16.847-46.584C359.015,253.974,356.823,278.608,375.862,300.558Z" transform="translate(-358.938 -253.974)" fill="#3f79da" fill-rule="evenodd"/>
      </g>
      <g id="Group_1309" data-name="Group 1309" transform="translate(63.037 9.322)">
        <path id="Path_1230" data-name="Path 1230" d="M380.278,289.062s3.392-15.036-16.108-40.653C364.171,248.409,363.356,269.44,380.278,289.062Z" transform="translate(-364.164 -248.409)" fill="#3f79da" fill-rule="evenodd"/>
      </g>
      <g id="Group_1310" data-name="Group 1310" transform="translate(76.495 2.656)">
        <path id="Path_1231" data-name="Path 1231" d="M380.78,283.78s4.783-12.462-8.293-39.266C372.486,244.514,369.094,262.814,380.78,283.78Z" transform="translate(-372.029 -244.514)" fill="#3f79da" fill-rule="evenodd"/>
      </g>
      <g id="Group_1311" data-name="Group 1311" transform="translate(86.891)">
        <path id="Path_1232" data-name="Path 1232" d="M383.627,273.4s5.261-10.236-4.4-30.434A41.875,41.875,0,0,0,383.627,273.4Z" transform="translate(-378.103 -242.962)" fill="#3f79da" fill-rule="evenodd"/>
      </g>
      <g id="Group_1312" data-name="Group 1312" transform="translate(97.683 0.421)">
        <path id="Path_1233" data-name="Path 1233" d="M384.409,266.358s14.526-2.55,17-23.15C401.412,243.208,384.965,249.987,384.409,266.358Z" transform="translate(-384.409 -243.208)" fill="#3f79da" fill-rule="evenodd"/>
      </g>
      <g id="Group_1313" data-name="Group 1313" transform="translate(92.891 20.849)">
        <path id="Path_1234" data-name="Path 1234" d="M411.384,255.84s-10.744-4.118-29.775,7.681A41.878,41.878,0,0,0,411.384,255.84Z" transform="translate(-381.609 -255.144)" fill="#3f79da" fill-rule="evenodd"/>
      </g>
      <g id="Group_1314" data-name="Group 1314" transform="translate(33.478 168.618)">
        <path id="Path_1235" data-name="Path 1235" d="M346.893,347.257s13.226-11.126,41.411-2.475C388.3,344.782,368.926,356.05,346.893,347.257Z" transform="translate(-346.893 -341.488)" fill="#3f79da" fill-rule="evenodd"/>
      </g>
      <g id="Group_1315" data-name="Group 1315" transform="translate(38.06 142.675)">
        <path id="Path_1236" data-name="Path 1236" d="M349.57,336.144s13.123-13.936,46.889-8.595C396.459,327.549,376.329,342.52,349.57,336.144Z" transform="translate(-349.57 -326.329)" fill="#3f79da" fill-rule="evenodd"/>
      </g>
      <g id="Group_1316" data-name="Group 1316" transform="translate(40.985 126.375)">
        <path id="Path_1237" data-name="Path 1237" d="M351.279,330.4s11.595-15.233,45.732-13.446C397.011,316.951,378.557,333.941,351.279,330.4Z" transform="translate(-351.279 -316.805)" fill="#3f79da" fill-rule="evenodd"/>
      </g>
      <g id="Group_1317" data-name="Group 1317" transform="translate(45.291 109.697)">
        <path id="Path_1238" data-name="Path 1238" d="M353.8,322.293s13.761-17.256,54.532-15.036C408.327,307.255,386.385,326.478,353.8,322.293Z" transform="translate(-353.795 -307.06)" fill="#3f79da" fill-rule="evenodd"/>
      </g>
      <g id="Group_1318" data-name="Group 1318" transform="translate(50.839 93.278)">
        <path id="Path_1239" data-name="Path 1239" d="M357.037,313.31s14.273-17.939,56.56-15.641C413.6,297.67,390.837,317.65,357.037,313.31Z" transform="translate(-357.037 -297.466)" fill="#3f79da" fill-rule="evenodd"/>
      </g>
      <g id="Group_1319" data-name="Group 1319" transform="translate(55.626 72.25)">
        <path id="Path_1240" data-name="Path 1240" d="M359.834,309.619s11.239-19.984,53.349-24.44C413.183,285.179,393.893,308.526,359.834,309.619Z" transform="translate(-359.834 -285.179)" fill="#3f79da" fill-rule="evenodd"/>
      </g>
      <g id="Group_1320" data-name="Group 1320" transform="translate(62.926 56.824)">
        <path id="Path_1241" data-name="Path 1241" d="M364.1,299.1s9.8-18.208,47.7-22.936C411.8,276.165,394.794,297.545,364.1,299.1Z" transform="translate(-364.1 -276.165)" fill="#3f79da" fill-rule="evenodd"/>
      </g>
      <g id="Group_1321" data-name="Group 1321" transform="translate(71.697 38.303)">
        <path id="Path_1242" data-name="Path 1242" d="M369.225,290.572s7.513-16.844,42.633-25.229C411.858,265.343,397.881,285.745,369.225,290.572Z" transform="translate(-369.225 -265.343)" fill="#3f79da" fill-rule="evenodd"/>
      </g>
      <g id="Group_1322" data-name="Group 1322" transform="translate(85.462 28.161)">
        <path id="Path_1243" data-name="Path 1243" d="M377.268,272.581s8.2-10.53,37.914-13.164C415.182,259.417,401.258,271.768,377.268,272.581Z" transform="translate(-377.268 -259.417)" fill="#3f79da" fill-rule="evenodd"/>
      </g>
      <g id="Group_1323" data-name="Group 1323" transform="translate(35.234 156.579)">
        <path id="Path_1244" data-name="Path 1244" d="M347.919,340.322s14.985-11.915,47.638-1.79C395.557,338.532,373.491,350.466,347.919,340.322Z" transform="translate(-347.919 -334.454)" fill="#3f79da" fill-rule="evenodd"/>
      </g>
    </g>
    <g id="Group_1325" data-name="Group 1325" transform="translate(418.445 440.811)">
      <path id="Path_1245" data-name="Path 1245" d="M273.005,476.631l135.086,52.133a23.667,23.667,0,0,0,10.893-1.948c12.172-5.47,17.229-10.655,17.23-10.619-.139.287-28.526-2.328-23.1-6.811,5.114-4.123,26.8,4.4,35.746-.905,8.855-5.052,21.333-15.75,21.285-15.788-.034.219-23.508,4.83-20.877-.83,2.458-5.232,27.709-6.382,36.037-13.828,8.117-6.95-21.456-.156-22.787-4.042-1.467-3.183,29.638-9.7,37.618-15.854,8.044-5.667,14.6-20.177,9.813-18.3-4.727,1.865-12.43,4.833-11.1,1.395,1.4-3.151,24.216-18.108,26.748-25.07,2.62-6.442-20.449,5.81-20.7,2.887-.238-2.336,26.373-13.939,32.464-24.382,6.144-10.031,8.206-19.946,7.188-20.143-.976-.1-15.247,10.727-17.052,9.315-1.593-.993,28.589-65.677,2.67-91.983-32.59,6.815-73.3,41.05-73.407,40.978-1.667-1.3,1.121-15.18.361-15.94-.674-.757-7.5,3.075-13.284,9.324-5.459,6.2-8.066,29.318-10.717,29.143-2.172-.293,1.925-20.222-3.022-17.792-4.537,2.394-12.187,20.92-15.154,21.6-2.736.714-1.379-5.518-.823-9.327.536-3.758-10.1.166-13.719,5.63-3.219,5.5-8.254,30.032-11.485,27.733-2.612-2.4,2-24.942-3.567-20.176-5.107,4.6-7.273,24.776-12.223,24.661-4.54-.212.809-17.176.625-17.16.012.038-8.856,5.891-13.825,10.255-4.71,4.325-2.588,25.253-7.458,26.989-4.431,1.586.12-21.125-.173-21.081-.026-.009-4.556,1.3-11.232,6.923-6.688,5.542-4.142,16.856-10.469,22.245-6.366,5.286-9.2-8.153-9.223-8.122C287.918,430.327,276.394,457.337,273.005,476.631Z" transform="translate(-273.005 -291.858)" fill="#6fa0fd" fill-rule="evenodd"/>
    </g>
    <g id="Group_1351" data-name="Group 1351" transform="translate(130.648 381.412)">
      <g id="Group_1326" data-name="Group 1326" transform="translate(22.545 20.653)">
        <path id="Path_1246" data-name="Path 1246" d="M118.232,270.6c13.38,15.2,23.929,33.429,33.129,51.34a326.356,326.356,0,0,1,32.662,102.7l1.737-.625a333.716,333.716,0,0,0-31.837-101.036c-9.332-18.671-20.326-37.68-34.2-53.435C118.957,268.674,117.451,269.716,118.232,270.6Z" transform="translate(-118.014 -269.218)" fill="#3f79da" fill-rule="evenodd"/>
      </g>
      <g id="Group_1327" data-name="Group 1327" transform="translate(89.831 147.317)">
        <path id="Path_1247" data-name="Path 1247" d="M157.33,371.478s3.127-17,30.374-28.248C187.7,343.23,179.922,364.249,157.33,371.478Z" transform="translate(-157.33 -343.23)" fill="#3f79da" fill-rule="evenodd"/>
      </g>
      <g id="Group_1328" data-name="Group 1328" transform="translate(87.759 130.902)">
        <path id="Path_1248" data-name="Path 1248" d="M156.119,365.323s3.982-18.724,35.618-31.685C191.737,333.638,182.3,356.882,156.119,365.323Z" transform="translate(-156.119 -333.638)" fill="#3f79da" fill-rule="evenodd"/>
      </g>
      <g id="Group_1329" data-name="Group 1329" transform="translate(85.681 115.899)">
        <path id="Path_1249" data-name="Path 1249" d="M154.905,361.332s1.26-19.1,30.713-36.46C185.618,324.872,179.607,349.229,154.905,361.332Z" transform="translate(-154.905 -324.872)" fill="#3f79da" fill-rule="evenodd"/>
      </g>
      <g id="Group_1330" data-name="Group 1330" transform="translate(81.635 101.63)">
        <path id="Path_1250" data-name="Path 1250" d="M152.543,356s-.744-19.127,26.737-39.465C179.28,316.534,175.847,341.384,152.543,356Z" transform="translate(-152.541 -316.534)" fill="#3f79da" fill-rule="evenodd"/>
      </g>
      <g id="Group_1331" data-name="Group 1331" transform="translate(77.583 79.488)">
        <path id="Path_1251" data-name="Path 1251" d="M150.173,349.886s-.361-22.069,32.511-46.29C182.685,303.594,177.98,332.383,150.173,349.886Z" transform="translate(-150.173 -303.596)" fill="#3f79da" fill-rule="evenodd"/>
      </g>
      <g id="Group_1332" data-name="Group 1332" transform="translate(72.077 62.398)">
        <path id="Path_1252" data-name="Path 1252" d="M146.956,341.658s-.4-22.921,33.692-48.048C180.648,293.61,175.8,323.5,146.956,341.658Z" transform="translate(-146.956 -293.61)" fill="#3f79da" fill-rule="evenodd"/>
      </g>
      <g id="Group_1333" data-name="Group 1333" transform="translate(68.219 44.816)">
        <path id="Path_1253" data-name="Path 1253" d="M144.887,336.132s-4.041-22.565,25.616-52.795C170.5,283.337,170.474,313.624,144.887,336.132Z" transform="translate(-144.702 -283.337)" fill="#3f79da" fill-rule="evenodd"/>
      </g>
      <g id="Group_1334" data-name="Group 1334" transform="translate(60.544 30.858)">
        <path id="Path_1254" data-name="Path 1254" d="M141.009,325.428s-6.3-19.693,16.619-50.247C157.629,275.181,161.206,302.262,141.009,325.428Z" transform="translate(-140.217 -275.181)" fill="#3f79da" fill-rule="evenodd"/>
      </g>
      <g id="Group_1335" data-name="Group 1335" transform="translate(51.884 18.844)">
        <path id="Path_1255" data-name="Path 1255" d="M135.633,314.747s-4.919-17.773,16.847-46.586C152.48,268.161,154.671,292.8,135.633,314.747Z" transform="translate(-135.157 -268.161)" fill="#3f79da" fill-rule="evenodd"/>
      </g>
      <g id="Group_1336" data-name="Group 1336" transform="translate(44 9.322)">
        <path id="Path_1256" data-name="Path 1256" d="M130.776,303.25s-3.392-15.036,16.108-40.653C146.884,262.6,147.7,283.628,130.776,303.25Z" transform="translate(-130.55 -262.597)" fill="#3f79da" fill-rule="evenodd"/>
      </g>
      <g id="Group_1337" data-name="Group 1337" transform="translate(37.276 2.656)">
        <path id="Path_1257" data-name="Path 1257" d="M127.475,297.968s-4.783-12.462,8.293-39.266C135.77,258.7,139.16,277,127.475,297.968Z" transform="translate(-126.621 -258.702)" fill="#3f79da" fill-rule="evenodd"/>
      </g>
      <g id="Group_1338" data-name="Group 1338" transform="translate(29.531)">
        <path id="Path_1258" data-name="Path 1258" d="M123.525,287.584s-5.261-10.236,4.4-30.434A41.876,41.876,0,0,1,123.525,287.584Z" transform="translate(-122.096 -257.15)" fill="#3f79da" fill-rule="evenodd"/>
      </g>
      <g id="Group_1339" data-name="Group 1339" transform="translate(8.69 0.421)">
        <path id="Path_1259" data-name="Path 1259" d="M126.921,280.546s-14.526-2.55-17-23.15C109.918,257.4,126.365,264.177,126.921,280.546Z" transform="translate(-109.918 -257.396)" fill="#3f79da" fill-rule="evenodd"/>
      </g>
      <g id="Group_1340" data-name="Group 1340" transform="translate(0.71 20.849)">
        <path id="Path_1260" data-name="Path 1260" d="M105.255,270.028s10.744-4.118,29.775,7.681A41.878,41.878,0,0,1,105.255,270.028Z" transform="translate(-105.255 -269.332)" fill="#3f79da" fill-rule="evenodd"/>
      </g>
      <g id="Group_1341" data-name="Group 1341" transform="translate(48.487 168.618)">
        <path id="Path_1261" data-name="Path 1261" d="M174.581,361.445s-13.224-11.126-41.409-2.475C133.172,358.97,152.548,370.238,174.581,361.445Z" transform="translate(-133.172 -355.676)" fill="#3f79da" fill-rule="evenodd"/>
      </g>
      <g id="Group_1342" data-name="Group 1342" transform="translate(38.428 142.675)">
        <path id="Path_1262" data-name="Path 1262" d="M174.183,350.332s-13.123-13.936-46.889-8.595C127.294,341.737,147.422,356.708,174.183,350.332Z" transform="translate(-127.294 -340.518)" fill="#3f79da" fill-rule="evenodd"/>
      </g>
      <g id="Group_1343" data-name="Group 1343" transform="translate(36.66 126.375)">
        <path id="Path_1263" data-name="Path 1263" d="M171.993,344.585s-11.595-15.233-45.732-13.446C126.261,331.139,144.715,348.129,171.993,344.585Z" transform="translate(-126.261 -330.993)" fill="#3f79da" fill-rule="evenodd"/>
      </g>
      <g id="Group_1344" data-name="Group 1344" transform="translate(23.554 109.697)">
        <path id="Path_1264" data-name="Path 1264" d="M173.133,336.481s-13.76-17.256-54.53-15.036C118.6,321.445,140.543,340.666,173.133,336.481Z" transform="translate(-118.603 -321.248)" fill="#3f79da" fill-rule="evenodd"/>
      </g>
      <g id="Group_1345" data-name="Group 1345" transform="translate(15.978 93.278)">
        <path id="Path_1265" data-name="Path 1265" d="M170.736,327.5s-14.273-17.939-56.56-15.64C114.176,311.858,136.936,331.838,170.736,327.5Z" transform="translate(-114.176 -311.654)" fill="#3f79da" fill-rule="evenodd"/>
      </g>
      <g id="Group_1346" data-name="Group 1346" transform="translate(14.401 72.25)">
        <path id="Path_1266" data-name="Path 1266" d="M166.6,323.807s-11.237-19.984-53.349-24.44C113.255,299.367,132.546,322.714,166.6,323.807Z" transform="translate(-113.255 -299.367)" fill="#3f79da" fill-rule="evenodd"/>
      </g>
      <g id="Group_1347" data-name="Group 1347" transform="translate(12.752 56.824)">
        <path id="Path_1267" data-name="Path 1267" d="M159.989,313.289s-9.8-18.208-47.7-22.936C112.291,290.353,129.3,311.732,159.989,313.289Z" transform="translate(-112.291 -290.353)" fill="#3f79da" fill-rule="evenodd"/>
      </g>
      <g id="Group_1348" data-name="Group 1348" transform="translate(9.046 38.303)">
        <path id="Path_1268" data-name="Path 1268" d="M152.76,304.76s-7.515-16.844-42.634-25.229C110.126,279.531,124.1,299.934,152.76,304.76Z" transform="translate(-110.126 -279.531)" fill="#3f79da" fill-rule="evenodd"/>
      </g>
      <g id="Group_1349" data-name="Group 1349" transform="translate(0 28.161)">
        <path id="Path_1269" data-name="Path 1269" d="M142.754,286.769s-8.2-10.53-37.914-13.164C104.84,273.6,118.764,285.956,142.754,286.769Z" transform="translate(-104.84 -273.605)" fill="#3f79da" fill-rule="evenodd"/>
      </g>
      <g id="Group_1350" data-name="Group 1350" transform="translate(40.504 156.579)">
        <path id="Path_1270" data-name="Path 1270" d="M176.146,354.51s-14.985-11.915-47.638-1.79C128.507,352.72,150.574,364.654,176.146,354.51Z" transform="translate(-128.507 -348.642)" fill="#3f79da" fill-rule="evenodd"/>
      </g>
    </g>
    <g id="Group_1352" data-name="Group 1352" transform="translate(149.934 657.909)">
      <path id="Path_1271" data-name="Path 1271" d="M342,449.758c124.415,0,225.889-6.974,225.889-15.524S466.414,418.712,342,418.712s-225.889,6.972-225.889,15.522S217.583,449.758,342,449.758Z" transform="translate(-116.109 -418.712)" fill="#bedaf7" fill-rule="evenodd"/>
    </g>
    <g id="Group_1422" data-name="Group 1422" transform="translate(68.562 82.478)">
      <g id="Group_1353" data-name="Group 1353" transform="translate(165.286 45.302)">
        <path id="Path_1272" data-name="Path 1272" d="M451.334,150.206V613.348a41.249,41.249,0,0,1-41.257,41.258H206.4a41.25,41.25,0,0,1-41.257-41.258V150.206A41.264,41.264,0,0,1,206.4,108.949H410.077A41.263,41.263,0,0,1,451.334,150.206Z" transform="translate(-165.142 -108.949)" fill="#6fa0fd" fill-rule="evenodd"/>
      </g>
      <g id="Group_1354" data-name="Group 1354" transform="translate(176.477 56.493)">
        <path id="Rectangle_86" data-name="Rectangle 86" d="M17.569,0H246.243a17.568,17.568,0,0,1,17.568,17.568v488.14a17.569,17.569,0,0,1-17.569,17.569H17.568A17.568,17.568,0,0,1,0,505.709V17.569A17.569,17.569,0,0,1,17.569,0Z" fill="#edf7fb"/>
      </g>
      <g id="Group_1355" data-name="Group 1355" transform="translate(226.106 477.175)">
        <ellipse id="Ellipse_92" data-name="Ellipse 92" cx="80.125" cy="14.102" rx="80.125" ry="14.102" fill="#aabeeb"/>
      </g>
      <g id="Group_1356" data-name="Group 1356" transform="translate(451.478 129.702)">
        <path id="Path_1273" data-name="Path 1273" d="M334.767,267.541h-2.4V158.265h2.4a5.407,5.407,0,0,1,5.406,5.41l0,98.457A5.409,5.409,0,0,1,334.767,267.541Z" transform="translate(-332.369 -158.265)" fill="#407adb" fill-rule="evenodd"/>
      </g>
      <g id="Group_1357" data-name="Group 1357" transform="translate(158.032 127.843)">
        <path id="Path_1274" data-name="Path 1274" d="M168.158,210.33h-2.227A5.026,5.026,0,0,1,160.9,205.3V162.207a5.028,5.028,0,0,1,5.026-5.028h2.228Z" transform="translate(-160.903 -157.179)" fill="#407adb" fill-rule="evenodd"/>
      </g>
      <g id="Group_1358" data-name="Group 1358" transform="translate(158.961 206.27)">
        <path id="Path_1275" data-name="Path 1275" d="M167.771,235.713h-1.942a4.384,4.384,0,0,1-4.383-4.383V207.39a4.384,4.384,0,0,1,4.383-4.385h1.942Z" transform="translate(-161.446 -203.005)" fill="#407adb" fill-rule="evenodd"/>
      </g>
      <g id="Group_1359" data-name="Group 1359" transform="translate(240.836 45.302)">
        <path id="Path_1276" data-name="Path 1276" d="M209.287,108.949H344.566v19.424A19.48,19.48,0,0,1,325.144,147.8H228.711a19.48,19.48,0,0,1-19.424-19.423Z" transform="translate(-209.287 -108.949)" fill="#6fa0fd" fill-rule="evenodd"/>
      </g>
      <g id="Group_1362" data-name="Group 1362" transform="translate(270.207 60.027)">
        <g id="Group_1360" data-name="Group 1360">
          <path id="Path_1277" data-name="Path 1277" d="M235.845,122.253a4.7,4.7,0,1,1-4.7-4.7A4.7,4.7,0,0,1,235.845,122.253Z" transform="translate(-226.449 -117.553)" fill="#424b96" fill-rule="evenodd"/>
        </g>
        <g id="Group_1361" data-name="Group 1361" transform="translate(13.55 1.253)">
          <rect id="Rectangle_87" data-name="Rectangle 87" width="62.987" height="6.891" rx="1.395" fill="#424b96"/>
        </g>
      </g>
      <g id="Group_1385" data-name="Group 1385" transform="translate(147.854 194.598)">
        <g id="Group_1371" data-name="Group 1371" transform="translate(0 13.944)">
          <g id="Group_1363" data-name="Group 1363" transform="translate(0 16.858)">
            <path id="Path_1278" data-name="Path 1278" d="M159.246,214.785c4.742-2.357,11.5,2.41,15.168,10.66,2.7.585,4.544,4.6,4.2,9.421-.286,3.994-1.99,7.376-4.147,8.689a6.193,6.193,0,0,1-2.013,1.621c-4.785,2.379-11.62-2.5-15.267-10.89S154.461,217.164,159.246,214.785Z" transform="translate(-154.956 -214.183)" fill="#fdceae" fill-rule="evenodd"/>
          </g>
          <g id="Group_1364" data-name="Group 1364" transform="translate(274.64 77.169)">
            <path id="Path_1279" data-name="Path 1279" d="M334.842,250.025c-4.742-2.355-11.5,2.41-15.168,10.66-2.7.585-4.544,4.6-4.2,9.423.286,3.994,1.99,7.374,4.147,8.687a6.176,6.176,0,0,0,2.013,1.622c4.785,2.377,11.62-2.5,15.267-10.891S339.627,252.4,334.842,250.025Z" transform="translate(-315.433 -249.423)" fill="#fdceae" fill-rule="evenodd"/>
          </g>
          <g id="Group_1365" data-name="Group 1365" transform="translate(8.827 41.876)">
            <path id="Path_1280" data-name="Path 1280" d="M297.61,289.7,263.3,294.57c-43.562,6.183-74.27-21.173-88.673-65.769a17.228,17.228,0,0,1-14.509,4.694c6.921,56.565,39.456,89.1,96.451,101.277,1.42,44.308,3.816,92.212,2.74,135.757a250.056,250.056,0,0,0,96.271,2.375c-3.693-44.238-2.808-82.982,1.28-125.848,14.691,14.742,41.7,32.431,51.212,30.687,16.809-3.081,25.81-45.3,31.1-83.4-6.259-.558-10.588-3.844-13.2-9.565-6.534,21.283-14.133,39.011-22.424,58.975-30.432-19.945-41.8-38.02-76.388-55.7Z" transform="translate(-160.114 -228.801)" fill="#407adb" fill-rule="evenodd"/>
          </g>
          <g id="Group_1366" data-name="Group 1366" transform="translate(145.849 85.824)">
            <path id="Path_1281" data-name="Path 1281" d="M240.178,254.481H270.2v15.308c8.343,8.163,3.97,14.432-7.941,13.811-10.142-.531-22.079-4.054-22.079-16.073Z" transform="translate(-240.178 -254.481)" fill="#fdceae" fill-rule="evenodd"/>
          </g>
          <g id="Group_1367" data-name="Group 1367" transform="translate(145.849 85.824)">
            <path id="Path_1282" data-name="Path 1282" d="M240.178,254.481H270.2v7.655l-25.38,15.909a13.225,13.225,0,0,1-4.64-10.518Z" transform="translate(-240.178 -254.481)" fill="#f3b898" fill-rule="evenodd"/>
          </g>
          <g id="Group_1368" data-name="Group 1368" transform="translate(114.537)">
            <path id="Path_1283" data-name="Path 1283" d="M295.157,231.478l-41.964,58.679.38,6.476c-11.626-16.229-23.686-19.5-28.921-36.85-6.894-22.84-1.082-42.439,19.183-49.745,5.992-2.16,13.094,2.1,18.781-.95,14.632-7.852,20.992-4.8,22.279.686,2.138,9.118,17.294-3.914,21.769,4.73C311.085,223.041,305.761,229.953,295.157,231.478Z" transform="translate(-221.882 -204.332)" fill="#424b96" fill-rule="evenodd"/>
          </g>
          <g id="Group_1369" data-name="Group 1369" transform="translate(128.848 27.146)">
            <path id="Path_1284" data-name="Path 1284" d="M260.669,224a52.227,52.227,0,0,0,28.539-3.8c14.759,24.81,15.288,59.675-10.917,66.363-14.5,3.7-33.994-1.852-36.331-19.433-10.318-1.039-14.87-17.78-9.348-22.13,5.8-4.573,9.787,3.991,10.708,8.939l2.533-.746L244.5,239.853A32.3,32.3,0,0,0,260.669,224Z" transform="translate(-230.244 -220.194)" fill="#fdceae" fill-rule="evenodd"/>
          </g>
          <g id="Group_1370" data-name="Group 1370" transform="translate(128.848 27.146)">
            <path id="Path_1285" data-name="Path 1285" d="M260.669,224a52.227,52.227,0,0,0,28.539-3.8,43.5,43.5,0,0,1-27.571,13.294c-12.242,20.463-6.224,44.76,21,51.6a29.622,29.622,0,0,1-4.35,1.47c-14.5,3.7-33.994-1.852-36.331-19.433-10.318-1.039-14.87-17.78-9.348-22.13,5.8-4.573,9.787,3.991,10.708,8.939l2.533-.746L244.5,239.853A32.3,32.3,0,0,0,260.669,224Z" transform="translate(-230.244 -220.194)" fill="#f3b898" fill-rule="evenodd"/>
          </g>
        </g>
        <g id="Group_1384" data-name="Group 1384" transform="translate(250.768)">
          <g id="Group_1372" data-name="Group 1372" transform="translate(28.003 92.498)">
            <path id="Path_1286" data-name="Path 1286" d="M317.847,252.79l11.169-2.557,4.169,18.213a2.691,2.691,0,0,1-2.016,3.216l-5.939,1.359A2.692,2.692,0,0,1,322.016,271Z" transform="translate(-317.847 -250.233)" fill="#3b70cc" fill-rule="evenodd"/>
          </g>
          <g id="Group_1373" data-name="Group 1373" transform="translate(0 30.475)">
            <path id="Path_1287" data-name="Path 1287" d="M318.423,240.787c25.479-3.986,46.993-10.872,59.144-26.8L402.6,270.675l-16.792,20.374c-23.845-14.906-41.166-13.963-63.123-11.872-10.474,1-19.922-6.084-21.083-16.541h0a19.437,19.437,0,0,1,1.761-10.445l0-.009c.056-.118.113-.236.171-.353l.021-.045a20.109,20.109,0,0,1,1.218-2.117l0-.007c.068-.1.137-.207.207-.308l.039-.058c.067-.1.134-.192.2-.288l.041-.055c.072-.1.144-.2.219-.3l.012-.015c.077-.1.156-.205.234-.308l.039-.051q.48-.611,1.008-1.188l.036-.041.212-.226.1-.106.188-.193.127-.127.183-.181.121-.116.2-.185.125-.115c.068-.062.135-.123.2-.185l.1-.082c.075-.067.151-.133.228-.2.1-.091.212-.18.318-.267l.2-.164.142-.113.2-.149.156-.12.2-.149.149-.108.209-.147.168-.116.18-.122.222-.145.145-.094c.079-.051.159-.1.24-.149l.149-.092c.084-.051.168-.1.252-.149l.125-.074,0,0,.106-.06.286-.159.127-.068.262-.137.166-.086.243-.122.166-.079.236-.111.18-.082c.08-.036.163-.072.245-.106l.168-.074c.092-.038.185-.077.279-.115l.133-.053q.154-.062.308-.118l.128-.05.007,0c.132-.05.265-.1.4-.142l.007,0,.169-.056.267-.087.175-.053c.089-.027.178-.055.267-.08l.188-.053.25-.068.188-.05.286-.07.152-.036c.106-.024.211-.048.317-.07l.142-.031c.1-.021.207-.041.31-.06l.157-.031C318.12,240.837,318.271,240.811,318.423,240.787Z" transform="translate(-301.484 -213.992)" fill="#aabeeb" fill-rule="evenodd"/>
          </g>
          <g id="Group_1374" data-name="Group 1374" transform="translate(10.196 30.475)">
            <path id="Path_1288" data-name="Path 1288" d="M314.185,240.787c25.479-3.986,46.993-10.872,59.144-26.8-6.6,19.748-8.7,39.5-5.607,59.243-16.14-3.4-32.28-3.361-48.421-1.371l-11.86-28.7.08-.046.286-.159.127-.068.262-.137.166-.086.243-.122.166-.079.236-.111.18-.082c.08-.036.163-.072.245-.106l.168-.074c.092-.038.185-.077.279-.115l.133-.053q.154-.062.308-.118l.128-.05.007,0c.132-.05.265-.1.4-.142l.007,0,.169-.056.267-.087.175-.053c.089-.027.178-.055.267-.08l.188-.053.25-.068.188-.05.286-.07.152-.036c.106-.024.21-.048.317-.07l.142-.031c.1-.021.207-.041.31-.06l.158-.031C313.882,240.837,314.033,240.811,314.185,240.787Z" transform="translate(-307.442 -213.992)" fill="#b7cdfe" fill-rule="evenodd"/>
          </g>
          <g id="Group_1375" data-name="Group 1375" transform="translate(0 56.595)">
            <path id="Path_1289" data-name="Path 1289" d="M318.423,229.93q2.079-.323,4.121-.676a89.542,89.542,0,0,0-.289,23.361,96.83,96.83,0,0,0,2.968,15.468q-1.26.113-2.538.238c-10.474,1-19.922-6.084-21.083-16.541h0A20.154,20.154,0,0,1,318.423,229.93Z" transform="translate(-301.484 -229.254)" fill="#407adb" fill-rule="evenodd"/>
          </g>
          <g id="Group_1376" data-name="Group 1376" transform="translate(73.3)">
            <path id="Path_1290" data-name="Path 1290" d="M370.8,196.288c18.245-2.025,36.331,26.039,40.4,62.683s-7.426,67.989-25.669,70.013-36.333-26.039-40.4-62.682S352.559,198.312,370.8,196.288Z" transform="translate(-344.315 -196.185)" fill="#b7cdfe" fill-rule="evenodd"/>
          </g>
          <g id="Group_1377" data-name="Group 1377" transform="translate(77.395 4.116)">
            <path id="Path_1291" data-name="Path 1291" d="M369.557,198.674c15.981-1.775,32.031,24.66,35.845,59.04s-6.046,63.69-22.027,65.463-32.031-24.658-35.847-59.04S353.574,200.449,369.557,198.674Z" transform="translate(-346.708 -198.59)" fill="#aabeeb" fill-rule="evenodd"/>
          </g>
          <g id="Group_1378" data-name="Group 1378" transform="translate(74.502 5.734)">
            <ellipse id="Ellipse_93" data-name="Ellipse 93" cx="26.397" cy="58.161" rx="26.397" ry="58.161" transform="translate(0 5.824) rotate(-6.333)" fill="#6fa0fd"/>
          </g>
          <g id="Group_1379" data-name="Group 1379" transform="translate(80.138 39.162)">
            <path id="Path_1292" data-name="Path 1292" d="M364.024,293.421c-7.215-9.921-12.9-25.823-14.934-44.152a114.924,114.924,0,0,1,.441-30.2c8.275-.2,16.767,16.482,19.139,37.856C370.4,272.549,368.4,286.442,364.024,293.421Z" transform="translate(-348.311 -219.068)" fill="#5e94ea" fill-rule="evenodd"/>
          </g>
          <g id="Group_1380" data-name="Group 1380" transform="translate(80.17 58.161)">
            <path id="Path_1293" data-name="Path 1293" d="M367,234.821l-18.673-4.652c.08,3.644.323,7.388.748,11.2a125.682,125.682,0,0,0,2.531,14.79l17.14-6.283Z" transform="translate(-348.329 -230.169)" fill="#505bb5" fill-rule="evenodd"/>
          </g>
          <g id="Group_1381" data-name="Group 1381" transform="translate(81.416 70.342)">
            <path id="Path_1294" data-name="Path 1294" d="M349.057,240.241l18.3-2.954.873,7.528L351.09,251.1C350.274,247.617,349.589,243.989,349.057,240.241Z" transform="translate(-349.057 -237.287)" fill="#424b96" fill-rule="evenodd"/>
          </g>
          <g id="Group_1382" data-name="Group 1382" transform="translate(95.759 62.8)">
            <path id="Path_1295" data-name="Path 1295" d="M360.522,232.892c2.115-.234,4.2,2.949,4.665,7.109s-.878,7.725-2.993,7.96-4.2-2.949-4.665-7.109S358.408,233.127,360.522,232.892Z" transform="translate(-357.438 -232.88)" fill="#aabeeb" fill-rule="evenodd"/>
          </g>
          <g id="Group_1383" data-name="Group 1383" transform="translate(20.151 56.247)">
            <path id="Path_1296" data-name="Path 1296" d="M316.124,229.051a89.37,89.37,0,0,0-.31,23.494,96.637,96.637,0,0,0,2.979,15.507q-.968.085-1.948.175a97.016,97.016,0,0,1-2.968-15.468,89.558,89.558,0,0,1,.289-23.362Q315.151,229.227,316.124,229.051Z" transform="translate(-313.259 -229.051)" fill="#424b96" fill-rule="evenodd"/>
          </g>
        </g>
      </g>
      <g id="Group_1389" data-name="Group 1389" transform="translate(83.873 154.448)">
        <g id="Group_1386" data-name="Group 1386" transform="translate(11.425 15.362)">
          <path id="Path_1297" data-name="Path 1297" d="M184.582,181.7,201.5,205.082a37.234,37.234,0,0,1-60.335,43.649L124.247,225.35l14.33-10.366,16.915,23.379a19.605,19.605,0,0,0,27.3,4.381h0a19.607,19.607,0,0,0,4.381-27.3l-16.914-23.381Z" transform="translate(-124.247 -181.701)" fill="#b7cdfe" fill-rule="evenodd"/>
        </g>
        <g id="Group_1387" data-name="Group 1387" transform="translate(0 32.971)">
          <rect id="Rectangle_88" data-name="Rectangle 88" width="17.686" height="19.548" transform="matrix(0.81, -0.586, 0.586, 0.81, 0.312, 10.679)" fill="#424b96"/>
          <path id="Path_1298" data-name="Path 1298" d="M129.291,218.818l-.13-.18-11.59-16.02.181-.13,14.511-10.5.13.181,11.59,16.02-.181.13Zm-11.1-16.1,11.2,15.476,13.967-10.1-11.2-15.476Z" transform="translate(-117.571 -191.99)" fill="#3f79dc"/>
        </g>
        <g id="Group_1388" data-name="Group 1388" transform="translate(46.318 0)">
          <rect id="Rectangle_89" data-name="Rectangle 89" width="17.686" height="19.548" transform="translate(0 10.366) rotate(-35.883)" fill="#424b96"/>
        </g>
      </g>
      <g id="Group_1393" data-name="Group 1393" transform="translate(548.163 203.349)">
        <g id="Group_1390" data-name="Group 1390" transform="translate(1.377)">
          <path id="Path_1299" data-name="Path 1299" d="M389.668,224.043l1.652,4.13,40.2-14.759L426.014,201.3Z" transform="translate(-389.668 -201.299)" fill="#b7cdfe" fill-rule="evenodd"/>
        </g>
        <g id="Group_1391" data-name="Group 1391" transform="translate(5.232 49.839)">
          <path id="Path_1300" data-name="Path 1300" d="M391.92,231.8l.551,7.71,60.577,8.811-.826-17.9Z" transform="translate(-391.92 -230.42)" fill="#b7cdfe" fill-rule="evenodd"/>
        </g>
        <g id="Group_1392" data-name="Group 1392" transform="translate(0 81.228)">
          <path id="Path_1301" data-name="Path 1301" d="M391.341,248.762l-2.478,5.782,31.39,27.26,5.782-9.638Z" transform="translate(-388.863 -248.762)" fill="#b7cdfe" fill-rule="evenodd"/>
        </g>
      </g>
      <g id="Group_1398" data-name="Group 1398" transform="translate(25.249 290.563)">
        <g id="Group_1394" data-name="Group 1394">
          <rect id="Rectangle_90" data-name="Rectangle 90" width="106.023" height="98.757" rx="14.309" fill="#b7cdfe"/>
        </g>
        <g id="Group_1397" data-name="Group 1397" transform="translate(17.761 21.368)">
          <g id="Group_1395" data-name="Group 1395">
            <path id="Rectangle_91" data-name="Rectangle 91" d="M4.6,0H65.9A4.605,4.605,0,0,1,70.5,4.605v46.81a4.6,4.6,0,0,1-4.6,4.6H4.6a4.6,4.6,0,0,1-4.6-4.6V4.6A4.6,4.6,0,0,1,4.6,0Z" fill="#fff"/>
          </g>
          <g id="Group_1396" data-name="Group 1396" transform="translate(5.779 5.774)">
            <path id="Path_1302" data-name="Path 1302" d="M126.542,294,97.071,268.119l29.471,18.718,29.471-18.718Z" transform="translate(-97.071 -268.119)" fill="#b7cdfe" fill-rule="evenodd"/>
          </g>
        </g>
      </g>
      <g id="Group_1401" data-name="Group 1401" transform="translate(418.029 38.167)">
        <g id="Group_1399" data-name="Group 1399" transform="translate(0)">
          <circle id="Ellipse_94" data-name="Ellipse 94" cx="43.943" cy="43.943" r="43.943" transform="translate(0 25.637) rotate(-16.96)" fill="#b7cdfe"/>
        </g>
        <g id="Group_1400" data-name="Group 1400" transform="translate(29.73 31.228)">
          <path id="Path_1303" data-name="Path 1303" d="M363.646,131.807l-19.565,8.9c-.293-.159-.621-.459-.922-.655a8.38,8.38,0,1,0-2.2,15.047,8.62,8.62,0,0,0,2.124-.975,7.719,7.719,0,0,0,.892-.657,8.2,8.2,0,0,1,.876-.774,18.846,18.846,0,0,1,1.8.974c5.31,2.971,10.9,5.932,16.205,8.855,1.219.671.734.286,1.118,1.64a8.379,8.379,0,1,0,8.328-10.626,8.272,8.272,0,0,0-6.033,2.309,12.409,12.409,0,0,0-1.29,1.53c-.37-.068-12.616-6.844-13.5-7.338l-4.518-2.452-.1-2.095c3.137-1.431,6.229-2.855,9.423-4.285.579-.258,9.084-4.188,9.473-4.244a8.49,8.49,0,0,0,4.717,2.68,8.39,8.39,0,0,0,9.414-5.24,8.581,8.581,0,0,0-.137-6.312,8.394,8.394,0,0,0-15.979,1.946C363.656,130.662,363.723,131.2,363.646,131.807Z" transform="translate(-330.195 -123.027)" fill="#fff" fill-rule="evenodd"/>
        </g>
      </g>
      <g id="Group_1402" data-name="Group 1402" transform="translate(44.658)">
        <path id="Path_1304" data-name="Path 1304" d="M111.684,165.83H225.425c13.667,0,24.749-10.814,24.749-24.155s-11.081-24.155-24.749-24.155a25.076,25.076,0,0,0-13.561,3.948,23.958,23.958,0,0,0-39.8-23.361,19.6,19.6,0,1,0-37.112,11.93q-.59-.038-1.191-.039a17.533,17.533,0,0,0-16.767,22.621,17.029,17.029,0,1,0-5.309,33.21Z" transform="translate(-94.657 -82.478)" fill="#b7cdfe" fill-rule="evenodd"/>
      </g>
      <g id="Group_1409" data-name="Group 1409" transform="translate(201.564 135.512)">
        <g id="Group_1403" data-name="Group 1403" transform="translate(18.073)">
          <rect id="Rectangle_92" data-name="Rectangle 92" width="195.564" height="8.427" rx="2.462" fill="#cfd8fc"/>
        </g>
        <g id="Group_1404" data-name="Group 1404" transform="translate(18.073 23.594)">
          <path id="Rectangle_93" data-name="Rectangle 93" d="M2.461,0H193.1a2.461,2.461,0,0,1,2.461,2.461v3.5A2.462,2.462,0,0,1,193.1,8.427H2.462A2.462,2.462,0,0,1,0,5.965v-3.5A2.461,2.461,0,0,1,2.461,0Z" fill="#cfd8fc"/>
        </g>
        <g id="Group_1405" data-name="Group 1405" transform="translate(18.073 47.187)">
          <rect id="Rectangle_94" data-name="Rectangle 94" width="195.564" height="8.428" rx="2.462" fill="#cfd8fc"/>
        </g>
        <g id="Group_1406" data-name="Group 1406">
          <rect id="Rectangle_95" data-name="Rectangle 95" width="10.687" height="8.427" rx="2.462" fill="#407adb"/>
        </g>
        <g id="Group_1407" data-name="Group 1407" transform="translate(0 23.594)">
          <path id="Rectangle_96" data-name="Rectangle 96" d="M2.461,0H8.226a2.461,2.461,0,0,1,2.461,2.461v3.5A2.462,2.462,0,0,1,8.225,8.427H2.462A2.462,2.462,0,0,1,0,5.965v-3.5A2.461,2.461,0,0,1,2.461,0Z" fill="#407adb"/>
        </g>
        <g id="Group_1408" data-name="Group 1408" transform="translate(0 47.187)">
          <rect id="Rectangle_97" data-name="Rectangle 97" width="10.687" height="8.428" rx="2.462" fill="#407adb"/>
        </g>
      </g>
      <g id="Group_1414" data-name="Group 1414" transform="translate(201.564 523.429)">
        <g id="Group_1410" data-name="Group 1410" transform="translate(18.073)">
          <rect id="Rectangle_98" data-name="Rectangle 98" width="195.564" height="8.427" rx="2.461" fill="#cfd8fc"/>
        </g>
        <g id="Group_1411" data-name="Group 1411" transform="translate(18.073 23.593)">
          <rect id="Rectangle_99" data-name="Rectangle 99" width="195.564" height="8.427" rx="2.462" fill="#cfd8fc"/>
        </g>
        <g id="Group_1412" data-name="Group 1412">
          <rect id="Rectangle_100" data-name="Rectangle 100" width="10.687" height="8.427" rx="2.461" fill="#407adb"/>
        </g>
        <g id="Group_1413" data-name="Group 1413" transform="translate(0 23.593)">
          <rect id="Rectangle_101" data-name="Rectangle 101" width="10.687" height="8.427" rx="2.462" fill="#407adb"/>
        </g>
      </g>
      <g id="Group_1417" data-name="Group 1417" transform="translate(401.68 442.112)">
        <g id="Group_1415" data-name="Group 1415">
          <rect id="Rectangle_102" data-name="Rectangle 102" width="166.478" height="114.355" rx="9.872" fill="#b7cdfe"/>
        </g>
        <g id="Group_1416" data-name="Group 1416" transform="translate(60.815 36.155)">
          <path id="Path_1305" data-name="Path 1305" d="M338.806,361.938l44.847,21.023-44.847,21.023Z" transform="translate(-338.806 -361.938)" fill="#fff" fill-rule="evenodd"/>
        </g>
      </g>
      <g id="Group_1420" data-name="Group 1420" transform="translate(74.324 455.746)">
        <g id="Group_1418" data-name="Group 1418">
          <path id="Path_1306" data-name="Path 1306" d="M120.924,362.033h24.12l6.173-10.251c.849-1.412,1.542-3,4.657-3h24.033c3.115,0,3.808,1.592,4.657,3l6.173,10.251H214.86a8.959,8.959,0,0,1,8.932,8.932v61.087a8.959,8.959,0,0,1-8.932,8.934H120.924a8.96,8.96,0,0,1-8.933-8.934V370.965A8.959,8.959,0,0,1,120.924,362.033Z" transform="translate(-111.991 -348.778)" fill="#b7cdfe" fill-rule="evenodd"/>
        </g>
        <g id="Group_1419" data-name="Group 1419" transform="translate(33.59 33.951)">
          <path id="Path_1307" data-name="Path 1307" d="M153.93,413.239a22.312,22.312,0,1,0-22.312-22.311A22.354,22.354,0,0,0,153.93,413.239Z" transform="translate(-131.618 -368.616)" fill="#fff" fill-rule="evenodd"/>
        </g>
      </g>
      <g id="Group_1421" data-name="Group 1421" transform="translate(0 172.393)">
        <path id="Path_1308" data-name="Path 1308" d="M76.176,189.4a23.506,23.506,0,0,1,34.854,31.209l10.65,11.607a3.265,3.265,0,0,1-.2,4.6l-1.951,1.79a3.263,3.263,0,0,1-4.6-.2L104.28,226.8a23.506,23.506,0,0,1-28.1-37.4Zm6.031,6.572a14.584,14.584,0,1,0,20.607.885A14.585,14.585,0,0,0,82.207,195.968Z" transform="translate(-68.562 -183.21)" fill="#b7cdfe" fill-rule="evenodd"/>
      </g>
    </g>
  </g>
</svg>
