<svg xmlns="http://www.w3.org/2000/svg" xmlns:xlink="http://www.w3.org/1999/xlink" width="85.282" height="83.097" viewBox="0 0 85.282 83.097">
  <defs>
    <linearGradient id="linear-gradient" x1="0.221" y1="0.118" x2="0.646" y2="1.255" gradientUnits="objectBoundingBox">
      <stop offset="0" stop-color="#fe7ebb"/>
      <stop offset="1" stop-color="#fe3595"/>
    </linearGradient>
  </defs>
  <g id="_007-analysis" data-name="007-analysis" transform="translate(0 -6.558)">
    <path id="Path_518" data-name="Path 518" d="M133.679,91.389a4.169,4.169,0,1,0-3.327-1.663l-6.842,9.561a4.153,4.153,0,0,0-4.131.91l-4.56-2.588a4.164,4.164,0,1,0-8.141,0l-4.56,2.588a4.158,4.158,0,1,0,1.236,2.171l4.56-2.588a4.154,4.154,0,0,0,5.669,0l4.56,2.588a4.164,4.164,0,1,0,7.4-1.626l6.842-9.561A4.151,4.151,0,0,0,133.679,91.389Zm0-5.83a1.666,1.666,0,1,1-1.666,1.666A1.668,1.668,0,0,1,133.679,85.559Zm-34.4,19.35a1.666,1.666,0,1,1,1.666-1.666A1.668,1.668,0,0,1,99.282,104.909Zm11.466-6.51a1.666,1.666,0,1,1,1.666-1.666A1.668,1.668,0,0,1,110.747,98.4Zm11.466,6.51a1.666,1.666,0,1,1,1.666-1.666A1.668,1.668,0,0,1,122.213,104.909Z" transform="translate(-79.275 -63.76)" fill="url(#linear-gradient)"/>
    <path id="Path_519" data-name="Path 519" d="M69.757,96.224H3.534A1.036,1.036,0,0,1,2.5,95.188V43.65a1.036,1.036,0,0,1,1.035-1.035H9.423a1.249,1.249,0,0,0,0-2.5H3.534A3.538,3.538,0,0,0,0,43.65V95.188a3.538,3.538,0,0,0,3.534,3.534h8.614v2.749a2.844,2.844,0,0,0,2.84,2.84h12.5L21.606,115.8a1.249,1.249,0,1,0,2.224,1.139l6.47-12.632H44.112l6.47,12.632a1.249,1.249,0,1,0,2.224-1.139l-5.886-11.493h12.5a2.844,2.844,0,0,0,2.84-2.84V98.722h7.493a1.249,1.249,0,0,0,0-2.5Zm-9.992,5.248a.342.342,0,0,1-.342.342H14.988a.342.342,0,0,1-.342-.342V98.722h45.12Z" transform="translate(0 -27.968)" fill="url(#linear-gradient)"/>
    <path id="Path_520" data-name="Path 520" d="M80.32,14.646h56.458a1.036,1.036,0,0,1,1.035,1.035V27.559a1.249,1.249,0,1,0,2.5,0V15.681a3.538,3.538,0,0,0-3.534-3.534H110.04V9.692a3.138,3.138,0,0,0-3.134-3.134h-7.6a3.138,3.138,0,0,0-3.134,3.134v2.456H80.32a1.249,1.249,0,1,0,0,2.5ZM98.671,9.692a.636.636,0,0,1,.636-.636h7.6a.637.637,0,0,1,.636.636v2.456h-8.87V9.692Z" transform="translate(-65.9)" fill="url(#linear-gradient)"/>
    <path id="Path_521" data-name="Path 521" d="M98.651,267.576a1.249,1.249,0,0,0-1.249,1.249v11.039a1.249,1.249,0,0,0,1.249,1.249h5.068a1.249,1.249,0,0,0,1.249-1.249V268.825a1.249,1.249,0,0,0-1.249-1.249Zm3.819,11.039H99.9v-8.54h2.57Z" transform="translate(-81.178 -217.541)" fill="url(#linear-gradient)"/>
    <path id="Path_522" data-name="Path 522" d="M167.486,229.248a1.249,1.249,0,0,0-1.249,1.249V247.92a1.249,1.249,0,0,0,1.249,1.249h5.068a1.249,1.249,0,0,0,1.249-1.249V230.5a1.249,1.249,0,0,0-1.249-1.249Zm3.819,17.423h-2.57V231.746h2.57Z" transform="translate(-138.548 -185.597)" fill="url(#linear-gradient)"/>
    <path id="Path_523" data-name="Path 523" d="M236.322,267.576a1.249,1.249,0,0,0-1.249,1.249v11.039a1.249,1.249,0,0,0,1.249,1.249h5.068a1.249,1.249,0,0,0,1.249-1.249V268.825a1.249,1.249,0,0,0-1.249-1.249Zm3.819,11.039h-2.57v-8.54h2.57Z" transform="translate(-195.918 -217.541)" fill="url(#linear-gradient)"/>
    <path id="Path_524" data-name="Path 524" d="M305.158,311.832a1.249,1.249,0,0,0-1.249,1.249v3.667A1.249,1.249,0,0,0,305.158,318h5.068a1.249,1.249,0,0,0,0-2.5h-3.819v-2.418A1.249,1.249,0,0,0,305.158,311.832Z" transform="translate(-253.288 -254.426)" fill="url(#linear-gradient)"/>
    <path id="Path_525" data-name="Path 525" d="M330.952,184.374l-7.167-12.413a16.336,16.336,0,1,0-16.153,4.61,16.417,16.417,0,0,0,4.252.563,16.124,16.124,0,0,0,3.677-.425l7.165,12.414a4.749,4.749,0,1,0,8.225-4.749Zm-22.674-10.217a13.83,13.83,0,1,1,10.494-1.382A13.74,13.74,0,0,1,308.278,174.157Zm19.687,14.54a2.253,2.253,0,0,1-3.074-.823L318,175.931a16.4,16.4,0,0,0,3.9-2.251l6.9,11.944a2.248,2.248,0,0,1-.823,3.074Z" transform="translate(-246.307 -114.944)" fill="url(#linear-gradient)"/>
    <path id="Path_526" data-name="Path 526" d="M345.493,186.627a11.822,11.822,0,0,0-.591-8.564,1.249,1.249,0,1,0-2.26,1.065,9.357,9.357,0,1,1-2.821-3.486,1.249,1.249,0,1,0,1.507-1.992,11.863,11.863,0,1,0,4.165,12.977Z" transform="translate(-268.616 -137.253)" fill="url(#linear-gradient)"/>
  </g>
</svg>
