<svg xmlns="http://www.w3.org/2000/svg" xmlns:xlink="http://www.w3.org/1999/xlink" width="85.088" height="85.088" viewBox="0 0 85.088 85.088">
  <defs>
    <linearGradient id="linear-gradient" x1="0.117" y1="-3.025" x2="1.124" y2="3.743" gradientUnits="objectBoundingBox">
      <stop offset="0" stop-color="#fc6681"/>
      <stop offset="1" stop-color="#fb294f"/>
    </linearGradient>
  </defs>
  <g id="_004-social-media-1" data-name="004-social-media-1" transform="translate(0)">
    <path id="Path_496" data-name="Path 496" d="M120.509,297.418a1.418,1.418,0,0,0-2.836,0v1.418h-4.254a1.418,1.418,0,0,0,0,2.836h4.254v1.418a1.418,1.418,0,0,0,2.836,0v-1.418h34.035a1.418,1.418,0,0,0,0-2.836H120.509Zm0,0" transform="translate(-92.146 -243.529)" fill="url(#linear-gradient)"/>
    <path id="Path_497" data-name="Path 497" d="M208.672,200.226a1.419,1.419,0,0,0-.672,1.207v11.345a1.418,1.418,0,0,0,2.052,1.276l11.345-5.673a1.418,1.418,0,0,0,0-2.539l-11.345-5.673A1.418,1.418,0,0,0,208.672,200.226Zm2.164,3.5,6.756,3.378-6.756,3.378Zm0,0" transform="translate(-171.129 -164.561)" fill="url(#linear-gradient)"/>
    <path id="Path_498" data-name="Path 498" d="M119.091,202.836a1.418,1.418,0,1,0,0-2.836,4.255,4.255,0,0,0-4.254,4.254v1.418h-1.418a1.418,1.418,0,1,0,0,2.836h1.418v4.254a1.418,1.418,0,0,0,2.836,0v-4.254h1.418a1.418,1.418,0,1,0,0-2.836h-1.418v-1.418A1.418,1.418,0,0,1,119.091,202.836Zm0,0" transform="translate(-92.146 -164.547)" fill="url(#linear-gradient)"/>
    <path id="Path_499" data-name="Path 499" d="M328,232.509a1.418,1.418,0,1,0,2.836,0v-7.091a1.418,1.418,0,0,0-2.836,0Zm0,0" transform="translate(-269.857 -184.292)" fill="url(#linear-gradient)"/>
    <path id="Path_500" data-name="Path 500" d="M330.836,201.418A1.418,1.418,0,1,1,329.418,200,1.418,1.418,0,0,1,330.836,201.418Zm0,0" transform="translate(-269.857 -164.547)" fill="url(#linear-gradient)"/>
    <path id="Path_501" data-name="Path 501" d="M77.673,160H73.418A1.418,1.418,0,0,0,72,161.418v34.035a1.418,1.418,0,0,0,1.418,1.418h56.725a1.418,1.418,0,0,0,1.418-1.418V167.091a1.418,1.418,0,0,0-2.836,0v26.944H74.836v-31.2h2.836a1.418,1.418,0,1,0,0-2.836Zm0,0" transform="translate(-59.237 -131.637)" fill="url(#linear-gradient)"/>
    <path id="Path_502" data-name="Path 502" d="M227.345,162.836a1.418,1.418,0,0,0,0-2.836h-9.927a1.418,1.418,0,0,0,0,2.836Zm0,0" transform="translate(-177.711 -131.637)" fill="url(#linear-gradient)"/>
    <path id="Path_503" data-name="Path 503" d="M109.488,165.673a1.418,1.418,0,0,0-1.418,1.418v31.2a1.418,1.418,0,0,1-1.418,1.418h-62.4a1.418,1.418,0,0,1-1.418-1.418V161.418a1.418,1.418,0,0,0-2.836,0v36.871a4.255,4.255,0,0,0,4.254,4.254H64.108v5.673H55.6a4.254,4.254,0,1,0,0,8.509H95.307a1.418,1.418,0,1,0,0-2.836H55.6a1.418,1.418,0,1,1,0-2.836H95.307a1.418,1.418,0,1,0,0-2.836H86.8v-5.673h19.854a4.255,4.255,0,0,0,4.254-4.254v-31.2A1.418,1.418,0,0,0,109.488,165.673ZM83.962,208.216H66.944v-5.673H83.962Zm0,0" transform="translate(-32.909 -131.637)" fill="url(#linear-gradient)"/>
    <path id="Path_504" data-name="Path 504" d="M78,0H60.979a7.1,7.1,0,0,0-7.091,7.091v15.6H39.446a4.2,4.2,0,0,0,.261-1.418V4.254A4.255,4.255,0,0,0,35.453,0H4.254A4.255,4.255,0,0,0,0,4.254V21.272a4.255,4.255,0,0,0,4.254,4.254h16.43l10.93,10.93a1.418,1.418,0,0,0,2.421-1V25.526h20A7.1,7.1,0,0,0,60.979,31.2H78a7.1,7.1,0,0,0,7.091-7.091V7.091A7.1,7.1,0,0,0,78,0ZM34.035,22.69H32.617A1.418,1.418,0,0,0,31.2,24.108V32.03l-8.924-8.924a1.418,1.418,0,0,0-1-.415H4.254a1.418,1.418,0,0,1-1.418-1.418V4.254A1.418,1.418,0,0,1,4.254,2.836h31.2a1.418,1.418,0,0,1,1.418,1.418V21.272a1.418,1.418,0,0,1-1.418,1.418Zm48.216,1.418A4.255,4.255,0,0,1,78,28.363H60.979a4.255,4.255,0,0,1-4.254-4.254V7.091a4.255,4.255,0,0,1,4.254-4.254H78a4.255,4.255,0,0,1,4.254,4.254Zm0,0" fill="url(#linear-gradient)"/>
    <path id="Path_505" data-name="Path 505" d="M364.763,53.673a1.418,1.418,0,0,0-1.418,1.418,4.254,4.254,0,1,1-4.254-4.254,1.418,1.418,0,0,0,0-2.836,7.091,7.091,0,1,0,7.091,7.091A1.418,1.418,0,0,0,364.763,53.673Zm0,0" transform="translate(-289.602 -39.491)" fill="url(#linear-gradient)"/>
    <path id="Path_506" data-name="Path 506" d="M87.6,32H73.418a1.418,1.418,0,1,0,0,2.836H87.6A1.418,1.418,0,1,0,87.6,32Zm0,0" transform="translate(-59.237 -26.327)" fill="url(#linear-gradient)"/>
    <path id="Path_507" data-name="Path 507" d="M41.418,66.836H52.763a1.418,1.418,0,1,0,0-2.836H41.418a1.418,1.418,0,0,0,0,2.836Zm0,0" transform="translate(-32.909 -52.655)" fill="url(#linear-gradient)"/>
    <path id="Path_508" data-name="Path 508" d="M94.181,96H81.418a1.418,1.418,0,1,0,0,2.836H94.181a1.418,1.418,0,1,0,0-2.836Zm0,0" transform="translate(-65.819 -78.982)" fill="url(#linear-gradient)"/>
    <path id="Path_509" data-name="Path 509" d="M42.836,96H41.418a1.418,1.418,0,1,0,0,2.836h1.418a1.418,1.418,0,1,0,0-2.836Zm0,0" transform="translate(-32.909 -78.982)" fill="url(#linear-gradient)"/>
    <path id="Path_510" data-name="Path 510" d="M140.254,64h-2.836a1.418,1.418,0,0,0,0,2.836h2.836a1.418,1.418,0,0,0,0-2.836Zm0,0" transform="translate(-111.892 -52.655)" fill="url(#linear-gradient)"/>
  </g>
</svg>
