<?xml version="1.0" encoding="iso-8859-1"?>
<!-- Generator: Adobe Illustrator 19.0.0, SVG Export Plug-In . SVG Version: 6.00 Build 0)  -->
<svg version="1.1" id="Capa_1" xmlns="http://www.w3.org/2000/svg" xmlns:xlink="http://www.w3.org/1999/xlink" x="0px" y="0px"
	 viewBox="0 0 512 512" style="enable-background:new 0 0 512 512;" xml:space="preserve">
<path style="fill:#EBBA16;" d="M477.858,256.555C477.858,256.555,477.867,256.555,477.858,256.555l-55.407-138.982
	c-7.757-19.465-26.598-32.239-47.556-32.239h-237.79c-20.958,0-39.799,12.774-47.556,32.239L34.133,256.555l0,0
	c0.009-0.009,0.017-0.009,0.026-0.017C18.458,268.1,8.533,286.677,8.533,307.2v15.454c0,30.985,21.222,57.933,51.337,65.203
	c128.896,28.988,263.356,28.988,392.252,0c30.123-7.27,51.345-34.219,51.345-65.203V307.2
	C503.467,286.686,493.551,268.117,477.858,256.555z"/>
<g>
	<path style="fill:#28384C;" d="M452.13,387.857c-22.554,5.069-45.286,9.199-68.13,12.501V460.8c0,9.429,7.646,17.067,17.067,17.067
		h68.267c9.421,0,17.067-7.637,17.067-17.067v-93.508C477.551,377.207,465.766,384.563,452.13,387.857z"/>
	<path style="fill:#28384C;" d="M59.87,387.857c-13.645-3.294-25.429-10.65-34.27-20.565V460.8c0,9.429,7.646,17.067,17.067,17.067
		h68.267c9.421,0,17.067-7.637,17.067-17.067v-60.442C105.165,397.065,82.432,392.934,59.87,387.857z"/>
</g>
<path style="fill:#FDCC00;" d="M453.333,245.623l-38.272-7.919c-105.156-21.12-213.419-21.12-318.114,0l-38.272,7.919
	C29.474,251.665,8.533,277.385,8.533,307.2v15.454c0,30.985,21.222,57.933,51.337,65.203c128.896,28.988,263.356,28.988,392.252,0
	c30.123-7.27,51.345-34.219,51.345-65.203V307.2C503.467,277.385,482.526,251.665,453.333,245.623z"/>
<path style="fill:#EBBA16;" d="M58.667,245.623l38.272-7.919c104.695-21.12,212.958-21.12,318.114,0l38.272,7.919
	c9.114,1.886,17.417,5.692,24.533,10.931l-55.415-138.991c-7.748-19.456-26.59-32.23-47.548-32.23h-237.79
	c-20.958,0-39.799,12.774-47.556,32.239L34.133,256.555l0,0C41.25,251.315,49.562,247.509,58.667,245.623z"/>
<g>
	<path style="fill:#514563;" d="M420.13,203.913c-54.144-10.752-109.363-16.179-164.309-16.179
		c-55.014,0-110.165,5.444-163.942,16.179l29.38-73.702c2.594-6.528,8.823-10.743,15.846-10.743h237.79
		c7.023,0,13.252,4.215,15.855,10.743L420.13,203.913z"/>
	<path style="fill:#514563;" d="M486.4,196.267h-32.572l13.611,34.133H486.4c9.421,0,17.067-7.637,17.067-17.067
		S495.821,196.267,486.4,196.267z"/>
	<path style="fill:#514563;" d="M58.172,196.267H25.6c-9.421,0-17.067,7.637-17.067,17.067S16.179,230.4,25.6,230.4h18.961
		L58.172,196.267z"/>
</g>
<g>
	<path style="fill:#EBBA16;" d="M143.889,341.333h13.577c19.311,0,27.844-7.194,16.913-14.438
		c-17.835-11.802-102.084-50.671-109.525-53.094c-10.231-3.328-16.845,4.881-12.066,19.61c4.881,15.061,9.532,41.916,37.001,45.312
		C117.009,342.084,126.234,341.333,143.889,341.333z"/>
	<path style="fill:#EBBA16;" d="M368.111,341.333h-13.577c-19.311,0-27.844-7.194-16.913-14.438
		c17.835-11.81,102.084-50.679,109.534-53.094c10.231-3.328,16.845,4.881,12.066,19.61c-4.881,15.061-9.532,41.916-37.001,45.312
		C394.991,342.084,385.766,341.333,368.111,341.333z"/>
</g>
<path style="fill:#DC691D;" d="M313.233,407.697l-6.255-47.462c-3.191-15.949-17.203-27.435-33.476-27.435h-35.004
	c-16.273,0-30.285,11.486-33.468,27.443l-6.255,47.462C236.885,410.138,275.115,410.138,313.233,407.697z"/>
<path style="fill:#E7ECED;" d="M310.571,298.667H201.429c-3.362,0-6.63-1.05-9.37-3.004l-14.609-10.436
	c-12.749-9.105-6.306-29.227,9.37-29.227h138.394c15.667,0,22.11,20.105,9.361,29.21l-14.643,10.462
	C317.201,297.617,313.933,298.667,310.571,298.667z"/>
<g>
	<rect x="204.8" y="256" style="fill:#AFB6BB;" width="17.067" height="42.667"/>
	<rect x="247.467" y="256" style="fill:#AFB6BB;" width="17.067" height="42.667"/>
	<rect x="290.133" y="256" style="fill:#AFB6BB;" width="17.067" height="42.667"/>
</g>
<g>
	<path style="fill:#4D007E;" d="M469.333,486.4h-68.267c-14.114,0-25.6-11.486-25.6-25.6v-60.442c0-4.241,3.115-7.842,7.313-8.439
		c22.963-3.328,45.653-7.484,67.413-12.365c11.546-2.807,21.862-9.011,29.833-17.946c2.355-2.654,6.11-3.541,9.412-2.295
		c3.311,1.271,5.495,4.437,5.495,7.979V460.8C494.933,474.914,483.447,486.4,469.333,486.4z M392.533,407.714V460.8
		c0,4.71,3.823,8.533,8.533,8.533h68.267c4.71,0,8.533-3.823,8.533-8.533v-74.94c-7.211,4.753-15.206,8.243-23.731,10.291
		c-0.043,0.017-0.085,0.026-0.137,0.034C434.108,400.649,413.457,404.523,392.533,407.714z M452.13,387.857h0.085H452.13z"/>
	<path style="fill:#4D007E;" d="M110.933,486.4H42.667c-14.114,0-25.6-11.486-25.6-25.6v-93.508c0-3.541,2.185-6.716,5.495-7.979
		c3.285-1.254,7.04-0.358,9.412,2.304c7.962,8.926,18.278,15.13,29.841,17.937c21.769,4.89,44.442,9.054,67.405,12.356
		c4.198,0.606,7.313,4.207,7.313,8.448V460.8C136.533,474.914,125.047,486.4,110.933,486.4z M34.133,385.869V460.8
		c0,4.71,3.831,8.533,8.533,8.533h68.267c4.702,0,8.533-3.823,8.533-8.533v-53.086c-20.924-3.183-41.566-7.057-61.466-11.537
		c-0.043-0.009-0.085-0.017-0.128-0.034C49.348,394.103,41.344,390.613,34.133,385.869z"/>
	<path style="fill:#4D007E;" d="M255.957,418.022c-66.62,0-133.205-7.287-197.956-21.845C23.799,387.925,0,357.7,0,322.654V307.2
		c0-33.69,23.953-63.104,56.943-69.931l38.272-7.919c106.479-21.478,214.622-21.478,321.527-0.009l38.323,7.927l0,0
		C488.055,244.096,512,273.51,512,307.2v15.454c0,35.046-23.799,65.271-57.873,73.498
		C389.282,410.735,322.611,418.022,255.957,418.022z M255.838,230.306c-52.582,0-105.105,5.257-157.21,15.77l-38.229,7.91
		c-25.105,5.188-43.332,27.571-43.332,53.214v15.454c0,27.136,18.423,50.543,44.809,56.917
		c126.95,28.544,261.291,28.544,388.378-0.034c26.257-6.349,44.681-29.756,44.681-56.883V307.2
		c0-25.643-18.227-48.026-43.332-53.222l0,0l-38.272-7.927C361.037,235.554,308.412,230.306,255.838,230.306z"/>
	<path style="fill:#4D007E;" d="M477.858,265.088c-1.775,0-3.558-0.546-5.06-1.664c-6.349-4.668-13.483-7.851-21.197-9.438
		l-38.281-7.927c-104.593-21.009-210.492-21.001-314.692,0.009l-38.229,7.91l0,0c-7.731,1.596-14.865,4.779-21.197,9.438
		c-3.072,2.278-7.27,2.227-10.283-0.119c-3.021-2.321-4.122-6.374-2.705-9.916L81.63,114.389
		C90.726,91.563,112.503,76.8,137.105,76.8h237.79c24.602,0,46.379,14.763,55.475,37.606l55.415,138.999
		c1.417,3.533,0.307,7.586-2.705,9.907C481.545,264.499,479.701,265.088,477.858,265.088z M58.667,245.623h0.085H58.667z
		 M137.105,93.867c-17.57,0-33.126,10.547-39.629,26.863L50.338,238.959c2.159-0.666,4.361-1.229,6.596-1.69l38.272-7.919
		c106.47-21.478,214.622-21.487,321.527-0.009l38.323,7.927c2.236,0.461,4.437,1.033,6.596,1.69l-47.138-118.238
		c-6.502-16.316-22.05-26.854-39.62-26.854H137.105z"/>
	<path style="fill:#4D007E;" d="M91.878,212.446c-2.5,0-4.924-1.101-6.562-3.072c-1.997-2.406-2.526-5.709-1.365-8.619l29.38-73.702
		c3.891-9.788,13.227-16.119,23.774-16.119h237.79c10.547,0,19.883,6.323,23.782,16.119l29.38,73.702
		c1.161,2.901,0.631,6.212-1.365,8.61c-1.988,2.406-5.163,3.516-8.218,2.918c-107.11-21.274-218.496-21.248-324.924,0
		C92.988,212.395,92.433,212.446,91.878,212.446z M255.821,179.2c50.321,0,100.924,4.523,150.639,13.44l-23.637-59.273
		c-1.297-3.26-4.412-5.367-7.927-5.367h-237.79c-3.516,0-6.622,2.108-7.919,5.359l-23.629,59.264
		C155.017,183.714,205.491,179.2,255.821,179.2z"/>
	<path style="fill:#4D007E;" d="M153.591,93.867c-1.28,0-2.586-0.29-3.806-0.896c-4.215-2.108-5.922-7.236-3.814-11.452
		l8.533-17.067c2.108-4.215,7.228-5.931,11.452-3.814c4.215,2.108,5.922,7.236,3.814,11.452l-8.533,17.067
		C159.735,92.143,156.723,93.867,153.591,93.867z"/>
	<path style="fill:#4D007E;" d="M358.409,93.867c-3.132,0-6.144-1.724-7.646-4.719l-8.533-17.067
		c-2.108-4.215-0.401-9.344,3.814-11.452c4.224-2.108,9.335-0.401,11.452,3.814l8.533,17.067c2.108,4.215,0.401,9.344-3.814,11.452
		C360.994,93.577,359.689,93.867,358.409,93.867z"/>
	<path style="fill:#4D007E;" d="M256,435.2c-4.71,0-8.533-3.814-8.533-8.533V409.6c0-4.719,3.823-8.533,8.533-8.533
		c4.71,0,8.533,3.814,8.533,8.533v17.067C264.533,431.386,260.71,435.2,256,435.2z"/>
	<path style="fill:#4D007E;" d="M298.667,435.2c-4.719,0-8.533-3.814-8.533-8.533v-18.082c0-4.719,3.814-8.533,8.533-8.533
		c4.719,0,8.533,3.814,8.533,8.533v18.082C307.2,431.386,303.386,435.2,298.667,435.2z"/>
	<path style="fill:#4D007E;" d="M341.333,435.2c-4.719,0-8.533-3.814-8.533-8.533v-21.146c0-4.719,3.814-8.533,8.533-8.533
		c4.719,0,8.533,3.814,8.533,8.533v21.146C349.867,431.386,346.052,435.2,341.333,435.2z"/>
	<path style="fill:#4D007E;" d="M213.333,435.2c-4.71,0-8.533-3.814-8.533-8.533v-18.099c0-4.719,3.823-8.533,8.533-8.533
		s8.533,3.814,8.533,8.533v18.099C221.867,431.386,218.044,435.2,213.333,435.2z"/>
	<path style="fill:#4D007E;" d="M170.667,435.2c-4.71,0-8.533-3.814-8.533-8.533V405.53c0-4.719,3.823-8.533,8.533-8.533
		s8.533,3.814,8.533,8.533v21.137C179.2,431.386,175.377,435.2,170.667,435.2z"/>
	<path style="fill:#4D007E;" d="M256,93.867c-4.71,0-8.533-3.823-8.533-8.533v-51.2c0-4.71,3.823-8.533,8.533-8.533
		c4.71,0,8.533,3.823,8.533,8.533v51.2C264.533,90.044,260.71,93.867,256,93.867z"/>
	<path style="fill:#4D007E;" d="M486.4,238.933h-18.961c-3.49,0-6.63-2.133-7.927-5.367l-13.619-34.133
		c-1.05-2.628-0.725-5.606,0.862-7.953c1.596-2.338,4.241-3.746,7.074-3.746H486.4c14.114,0,25.6,11.486,25.6,25.6
		C512,227.447,500.514,238.933,486.4,238.933z M473.225,221.867H486.4c4.71,0,8.533-3.831,8.533-8.533s-3.823-8.533-8.533-8.533
		h-19.985L473.225,221.867z"/>
	<path style="fill:#4D007E;" d="M44.561,238.933H25.6c-14.114,0-25.6-11.486-25.6-25.6c0-14.114,11.486-25.6,25.6-25.6h32.572
		c2.833,0,5.478,1.408,7.066,3.746c1.587,2.338,1.911,5.325,0.862,7.945l-13.611,34.133C51.2,236.8,48.051,238.933,44.561,238.933z
		 M25.6,204.8c-4.702,0-8.533,3.831-8.533,8.533s3.831,8.533,8.533,8.533h13.175l6.801-17.067H25.6z"/>
	<path style="fill:#4D007E;" d="M435.2,443.81c-9.779,0-19.55-2.85-28.075-8.533L379.264,416.7
		c-3.925-2.62-4.983-7.919-2.364-11.836c2.611-3.925,7.893-4.975,11.836-2.364l27.861,18.577c11.298,7.535,25.916,7.535,37.214,0
		l27.861-18.577c3.925-2.611,9.225-1.562,11.836,2.364c2.62,3.917,1.562,9.216-2.364,11.836l-27.861,18.577
		C454.75,440.96,444.979,443.81,435.2,443.81z"/>
	<path style="fill:#4D007E;" d="M76.8,443.768c-9.805,0-19.61-2.85-28.169-8.559L20.864,416.7c-3.917-2.62-4.975-7.91-2.364-11.836
		c2.603-3.925,7.902-4.975,11.836-2.364l27.767,18.509c11.358,7.586,26.035,7.586,37.402,0l27.767-18.509
		c3.917-2.611,9.216-1.562,11.836,2.364c2.611,3.925,1.553,9.216-2.364,11.836l-27.767,18.509
		C96.41,440.917,86.605,443.768,76.8,443.768z"/>
	<path style="fill:#4D007E;" d="M129.118,349.943c-10.564,0-21.103-0.367-40.38-2.748c-29.961-3.712-37.803-30.148-42.487-45.952
		c-0.546-1.843-1.067-3.593-1.587-5.205c-3.575-11.025-2.278-20.71,3.567-26.547c4.821-4.813,11.827-6.204,19.251-3.797
		c7.834,2.551,93.158,41.89,111.599,54.093c9.958,6.605,8.994,14.097,8.115,17.015c-2.534,8.422-13.099,13.065-29.73,13.065
		l-21.487,0.043C133.641,349.926,131.379,349.943,129.118,349.943z M60.535,281.6c-0.188,0-0.307,0.017-0.358,0.034
		c-0.213,0.299-1.212,3.149,0.725,9.139c0.563,1.741,1.126,3.627,1.715,5.615c5.299,17.869,10.735,31.701,28.22,33.869
		c22.289,2.739,31.829,2.679,45.013,2.586l21.615-0.043c3.849,0,6.844-0.316,9.071-0.742
		c-22.229-13.167-97.348-47.863-104.329-50.142C61.44,281.668,60.877,281.6,60.535,281.6z"/>
	<path style="fill:#4D007E;" d="M382.874,349.943c-2.261,0-4.514-0.017-6.861-0.034l-21.478-0.043
		c-16.631,0-27.196-4.642-29.73-13.073c-0.887-2.918-1.852-10.411,8.107-17.007c18.509-12.262,103.808-51.567,111.616-54.101
		c7.398-2.406,14.421-1.024,19.243,3.797c5.854,5.845,7.151,15.522,3.575,26.556c-0.529,1.604-1.041,3.371-1.596,5.205
		c-4.685,15.804-12.527,42.231-42.487,45.943C403.985,349.577,393.438,349.943,382.874,349.943z M345.464,332.066
		c2.227,0.418,5.222,0.734,9.071,0.734l21.606,0.043c13.158,0.094,22.716,0.162,45.03-2.586c17.476-2.167,22.921-16,28.22-33.86
		c0.589-1.988,1.152-3.883,1.715-5.623c1.946-5.99,0.939-8.841,0.589-9.225c-0.017,0.034-0.7-0.026-1.903,0.367
		C442.829,284.186,367.718,318.865,345.464,332.066z"/>
	<path style="fill:#4D007E;" d="M255.949,418.057c-19.277,0-38.562-0.606-57.719-1.835c-2.355-0.154-4.548-1.271-6.042-3.098
		c-1.493-1.826-2.176-4.19-1.869-6.537l6.255-47.471c4.053-20.429,21.649-34.85,41.924-34.85h35.004
		c20.267,0,37.871,14.421,41.839,34.295l6.349,48.026c0.307,2.338-0.367,4.71-1.869,6.537c-1.502,1.826-3.695,2.953-6.05,3.098
		C294.596,417.442,275.277,418.057,255.949,418.057z M208.427,399.727c31.642,1.69,63.573,1.698,95.147-0.009l-5.06-38.366
		c-2.287-11.366-12.843-20.019-25.011-20.019h-35.004c-12.169,0-22.724,8.653-25.105,20.574L208.427,399.727z"/>
	<path style="fill:#4D007E;" d="M310.571,307.2H201.429c-5.154,0-10.103-1.587-14.319-4.582l-14.626-10.453
		c-8.883-6.34-12.467-17.161-9.139-27.563c3.328-10.402,12.553-17.135,23.475-17.135h138.394c10.923,0,20.13,6.724,23.467,17.126
		c3.328,10.402-0.264,21.214-9.148,27.554l-14.635,10.47C320.666,305.613,315.716,307.2,310.571,307.2z M186.82,264.533
		c-5.137,0-6.827,4.036-7.219,5.274s-1.365,5.504,2.807,8.474l14.609,10.445c1.297,0.913,2.825,1.408,4.412,1.408h109.141
		c1.596,0,3.123-0.495,4.429-1.417l14.626-10.453c4.164-2.987,3.209-7.236,2.807-8.465c-0.401-1.237-2.091-5.265-7.219-5.265H186.82
		z"/>
	<path style="fill:#4D007E;" d="M213.333,307.2c-4.71,0-8.533-3.814-8.533-8.533V256c0-4.71,3.823-8.533,8.533-8.533
		s8.533,3.823,8.533,8.533v42.667C221.867,303.386,218.044,307.2,213.333,307.2z"/>
	<path style="fill:#4D007E;" d="M256,307.2c-4.71,0-8.533-3.814-8.533-8.533V256c0-4.71,3.823-8.533,8.533-8.533
		c4.71,0,8.533,3.823,8.533,8.533v42.667C264.533,303.386,260.71,307.2,256,307.2z"/>
	<path style="fill:#4D007E;" d="M298.667,307.2c-4.719,0-8.533-3.814-8.533-8.533V256c0-4.71,3.814-8.533,8.533-8.533
		c4.719,0,8.533,3.823,8.533,8.533v42.667C307.2,303.386,303.386,307.2,298.667,307.2z"/>
</g>
<g>
</g>
<g>
</g>
<g>
</g>
<g>
</g>
<g>
</g>
<g>
</g>
<g>
</g>
<g>
</g>
<g>
</g>
<g>
</g>
<g>
</g>
<g>
</g>
<g>
</g>
<g>
</g>
<g>
</g>
</svg>
