<svg id="_001-process" data-name="001-process" xmlns="http://www.w3.org/2000/svg" xmlns:xlink="http://www.w3.org/1999/xlink" width="90.111" height="90.111" viewBox="0 0 90.111 90.111">
  <defs>
    <linearGradient id="linear-gradient" x1="-0.034" y1="0.091" x2="1.054" y2="1.122" gradientUnits="objectBoundingBox">
      <stop offset="0" stop-color="#7e76f9"/>
      <stop offset="1" stop-color="#b2adfc"/>
    </linearGradient>
  </defs>
  <path id="Path_474" data-name="Path 474" d="M312.7,297.835V286.858l-4.2-1.074c-.029-.071-.058-.142-.089-.212l2.214-3.731-7.762-7.762-3.731,2.213-.212-.089-1.074-4.2H286.858l-1.074,4.2c-.071.029-.142.058-.212.089l-3.731-2.213-7.762,7.762,2.213,3.731c-.031.072-.06.143-.089.212L272,286.86v10.977l4.2,1.074c.029.071.058.142.089.212l-2.213,3.731,7.762,7.762,3.731-2.213.212.089,1.074,4.2h10.977l1.074-4.2c.071-.029.142-.058.212-.089l3.731,2.214,7.762-7.762-2.213-3.731c.031-.072.06-.143.089-.212Zm-5.731,4.56-4.569,4.569-3.106-1.843-.7.334a14.566,14.566,0,0,1-1.385.574l-.732.26-.892,3.5h-6.464l-.892-3.5-.732-.26a13.715,13.715,0,0,1-1.385-.574l-.7-.334-3.106,1.843-4.57-4.569,1.843-3.106-.334-.7a14.542,14.542,0,0,1-.574-1.385l-.26-.732-3.5-.892v-6.464l3.5-.892.26-.732a13.708,13.708,0,0,1,.574-1.385l.334-.7L277.73,282.3l4.57-4.57,3.106,1.843.7-.334a14.543,14.543,0,0,1,1.385-.574l.732-.26.892-3.5h6.464l.892,3.5.732.26a13.71,13.71,0,0,1,1.385.574l.7.334,3.106-1.843,4.57,4.57-1.843,3.106.334.7a14.551,14.551,0,0,1,.574,1.385l.26.732,3.5.892v6.464l-3.5.892-.26.732a13.717,13.717,0,0,1-.574,1.385l-.334.7Zm0,0" transform="translate(-222.584 -222.584)" fill="url(#linear-gradient)"/>
  <path id="Path_475" data-name="Path 475" d="M331.627,320a11.627,11.627,0,1,0,11.627,11.627A11.641,11.641,0,0,0,331.627,320Zm0,20.348a8.72,8.72,0,1,1,8.72-8.72A8.729,8.729,0,0,1,331.627,340.348Zm0,0" transform="translate(-261.864 -261.864)" fill="url(#linear-gradient)"/>
  <path id="Path_476" data-name="Path 476" d="M357.814,352a5.814,5.814,0,1,0,5.814,5.814A5.819,5.819,0,0,0,357.814,352Zm0,8.72a2.907,2.907,0,1,1,2.907-2.907A2.91,2.91,0,0,1,357.814,360.72Zm0,0" transform="translate(-288.05 -288.05)" fill="url(#linear-gradient)"/>
  <path id="Path_477" data-name="Path 477" d="M161.193,24.609a8.735,8.735,0,0,0,2.434,3.674v1.233l-6.911,2.591A7.3,7.3,0,0,0,152,38.91v7.6h34.882v-7.6a7.3,7.3,0,0,0-4.715-6.8l-6.912-2.591V28.283a8.717,8.717,0,0,0,2.434-3.674,5.812,5.812,0,0,0,4.833-5.715V13.081a13.081,13.081,0,0,0-26.161,0v5.814A5.812,5.812,0,0,0,161.193,24.609Zm11.155,5.51-2.907,4.844-2.907-4.844v-.106a8.557,8.557,0,0,0,5.814,0Zm-7.891,2.189,2.93,4.882-2.911,1.455L162.6,33.005Zm19.518,6.6V43.6H154.907V38.91a4.38,4.38,0,0,1,2.829-4.083l2.137-.8,2.905,8.718,6.662-3.331,6.662,3.331,2.905-8.718,2.138.8a4.377,4.377,0,0,1,2.828,4.081Zm-7.689-5.905-1.881,5.64L171.5,37.191l2.93-4.883Zm-6.845-5.391a5.819,5.819,0,0,1-5.814-5.814V15.889a11.251,11.251,0,0,0,5.814-2.32,11.239,11.239,0,0,0,5.814,2.32V21.8A5.819,5.819,0,0,1,169.441,27.615Zm8.72-6.217v-5a2.881,2.881,0,0,1,0,5Zm-8.72-18.49a10.186,10.186,0,0,1,10.174,10.174v.808a5.75,5.75,0,0,0-2.907-.808h-.25a8.411,8.411,0,0,1-5.99-2.481l-1.028-1.029L168.414,10.6a8.413,8.413,0,0,1-5.99,2.481h-.25a5.75,5.75,0,0,0-2.907.808v-.808A10.186,10.186,0,0,1,169.441,2.907Zm-8.72,13.484v5a2.881,2.881,0,0,1,0-5Zm0,0" transform="translate(-124.386 0)" fill="url(#linear-gradient)"/>
  <path id="Path_478" data-name="Path 478" d="M0,325.788H29.068V288H0Zm2.907-34.882H26.161v31.975H2.907Zm0,0" transform="translate(0 -235.678)" fill="url(#linear-gradient)"/>
  <path id="Path_479" data-name="Path 479" d="M32,320H49.441v2.907H32Zm0,0" transform="translate(-26.186 -261.864)" fill="url(#linear-gradient)"/>
  <path id="Path_480" data-name="Path 480" d="M32,352h2.907v2.907H32Zm0,0" transform="translate(-26.186 -288.05)" fill="url(#linear-gradient)"/>
  <path id="Path_481" data-name="Path 481" d="M64,352H75.627v2.907H64Zm0,0" transform="translate(-52.373 -288.05)" fill="url(#linear-gradient)"/>
  <path id="Path_482" data-name="Path 482" d="M32,384H49.441v2.907H32Zm0,0" transform="translate(-26.186 -314.237)" fill="url(#linear-gradient)"/>
  <path id="Path_483" data-name="Path 483" d="M32,416H49.441v2.907H32Zm0,0" transform="translate(-26.186 -340.423)" fill="url(#linear-gradient)"/>
  <path id="Path_484" data-name="Path 484" d="M112,448h2.907v2.907H112Zm0,0" transform="translate(-91.652 -366.61)" fill="url(#linear-gradient)"/>
  <path id="Path_485" data-name="Path 485" d="M32,448H43.627v2.907H32Zm0,0" transform="translate(-26.186 -366.61)" fill="url(#linear-gradient)"/>
  <path id="Path_486" data-name="Path 486" d="M173.584,348.4l-2.055-2.055-6.841,6.841,6.841,6.841,2.055-2.055-3.333-3.333h11.025v-2.907H170.251Zm0,0" transform="translate(-134.768 -283.422)" fill="url(#linear-gradient)"/>
  <path id="Path_487" data-name="Path 487" d="M74.907,84.092a1.455,1.455,0,0,1,1.453-1.453h6.665l-3.333,3.333,2.055,2.055,6.841-6.841-6.841-6.841L79.693,76.4l3.333,3.333H76.36A4.366,4.366,0,0,0,72,84.092v26.161h2.907Zm0,0" transform="translate(-58.919 -60.837)" fill="url(#linear-gradient)"/>
  <path id="Path_488" data-name="Path 488" d="M344.72,108.36v18.292l-3.333-3.333-2.055,2.055,6.841,6.841,6.841-6.841-2.055-2.055-3.333,3.333V108.36a4.366,4.366,0,0,0-4.36-4.36H336v2.907h7.267A1.455,1.455,0,0,1,344.72,108.36Zm0,0" transform="translate(-274.957 -85.106)" fill="url(#linear-gradient)"/>
</svg>
